<svg xmlns="http://www.w3.org/2000/svg" viewBox="0 0 25 25" id="people-talking"><g data-name="communication 2"><path d="M3.14 14.9l2.74-2h5.44l-.55 1.44a.5.5 0 00.17.58.47.47 0 00.3.1.49.49 0 00.3-.1l2.72-2h6.08a1.45 1.45 0 001.45-1.45V6.77a1.45 1.45 0 00-1.45-1.45H18.06V3a1.45 1.45 0 00-1.45-1.45H8.12A1.45 1.45 0 006.67 3V5.32H3.45A1.45 1.45 0 002 6.77v4.66a1.46 1.46 0 001 1.36l-.59 1.53a.5.5 0 00.17.58.47.47 0 00.3.1A.49.49 0 003.14 14.9zM18.06 7.7V6.32h2.28a.46.46 0 01.45.45v4.66a.46.46 0 01-.45.45H14.1a.47.47 0 00-.3.1l-1.48 1.1.11-.28s0 0 0 0a1.38 1.38 0 00.34-.18l.06 0a1.14 1.14 0 00.24-.25l0 0a1.35 1.35 0 00.17-.34l0-.09a1.76 1.76 0 00.06-.4V9.15h3.22A1.45 1.45 0 0018.06 7.7zM7.67 3a.46.46 0 01.45-.45h8.49a.46.46 0 01.45.45V7.7a.46.46 0 01-.45.45H13.39V6.77a1.45 1.45 0 00-1.45-1.45H7.67zM3 6.77a.45.45 0 01.44-.45h8.49a.45.45 0 01.45.45v4.66a.45.45 0 01-.45.45H5.71a.47.47 0 00-.3.1l-1.49 1.1.2-.52a.47.47 0 00-.06-.46.48.48 0 00-.41-.22h-.2A.45.45 0 013 11.43zM3.32 17.87A1.88 1.88 0 105.2 16 1.88 1.88 0 003.32 17.87zm2.76 0a.88.88 0 11-1.76 0 .88.88 0 111.76 0zM5.2 20.37A2.63 2.63 0 002.58 23a.51.51 0 00.51.51H7.32a.51.51 0 00.5-.51A2.62 2.62 0 005.2 20.37zM3.66 22.5a1.62 1.62 0 013.09 0zM10.32 17.87A1.88 1.88 0 1012.2 16 1.88 1.88 0 0010.32 17.87zm2.76 0a.88.88 0 01-1.76 0 .88.88 0 011.76 0zM12.2 20.37A2.63 2.63 0 009.58 23a.51.51 0 00.51.51h4.23a.51.51 0 00.5-.51A2.62 2.62 0 0012.2 20.37zM10.66 22.5a1.62 1.62 0 013.09 0zM17.32 17.87A1.88 1.88 0 1019.2 16 1.88 1.88 0 0017.32 17.87zm2.76 0a.88.88 0 01-1.76 0 .88.88 0 011.76 0zM19.2 20.37A2.63 2.63 0 0016.58 23a.51.51 0 00.51.51h4.23a.51.51 0 00.5-.51A2.62 2.62 0 0019.2 20.37zM17.66 22.5a1.62 1.62 0 013.09 0z" fill="#84cc16"></path></g></svg>