<svg xmlns="http://www.w3.org/2000/svg" enable-background="new 0 0 511.94 511.94" viewBox="0 0 511.94 511.94" id="rings" fill="#84cc16"><path d="M179.851 59.618l29.187 11.867 11.868 29.188c2.527 6.214 11.365 6.224 13.895 0l11.867-29.188 29.187-11.867c6.215-2.525 6.224-11.365 0-13.895l-29.187-11.867L234.8 4.669c-2.525-6.214-11.366-6.224-13.895 0l-11.868 29.188-29.187 11.867C173.636 48.249 173.627 57.089 179.851 59.618zM217.618 46.56c3.827-1.555 3.845-3.44 10.234-19.153 6.326 15.56 6.355 17.577 10.233 19.153l15.03 6.111-15.03 6.111c-3.827 1.555-3.845 3.44-10.233 19.153-6.327-15.56-6.356-17.577-10.234-19.153l-15.03-6.111L217.618 46.56zM437.726 118.026l19.78 8.043 8.043 19.779c2.527 6.214 11.365 6.224 13.895 0l8.042-19.779 19.78-8.043c6.214-2.525 6.224-11.365 0-13.895l-19.78-8.043-8.042-19.779c-2.526-6.215-11.363-6.224-13.895 0l-8.043 19.779-19.78 8.043C431.511 106.657 431.502 115.497 437.726 118.026zM472.496 99.047c3.859 9.491 2.6 8.196 12.032 12.032-9.402 3.823-8.166 2.524-12.032 12.032-3.862-9.494-2.604-8.198-12.033-12.032C469.867 107.255 468.629 108.554 472.496 99.047zM4.675 102.968l19.779 8.042 8.042 19.779c2.525 6.217 11.366 6.224 13.895.001l8.043-19.78 19.779-8.042c6.217-2.525 6.224-11.366.001-13.895l-19.78-8.043-8.043-19.78c-2.526-6.217-11.367-6.222-13.895.001L24.454 81.03l-19.78 8.043C-1.544 91.6-1.548 100.44 4.675 102.968zM39.443 83.988c3.86 9.491 2.6 8.196 12.032 12.032-9.401 3.823-8.165 2.523-12.032 12.031-3.872-9.522-2.64-8.212-12.031-12.031C36.814 92.197 35.577 93.497 39.443 83.988z" fill="#84cc16"></path><path d="M456.877,222.709c-3.159-2.679-7.892-2.288-10.57,0.871s-2.289,7.893,0.871,10.57
		c32.555,27.598,49.763,66.385,49.763,112.167c0,83.051-67.567,150.618-150.618,150.618s-150.617-67.567-150.617-150.618
		c0-117.814,128.823-187.235,224.548-130.987c3.572,2.096,8.168,0.903,10.267-2.667c2.098-3.571,0.904-8.168-2.667-10.267
		c-14.195-8.34-28.988-14.222-44.655-17.741c39.528-39.672,36.796-36.699,37.573-38.231c0.873-1.721,1.022-3.59,0.558-5.33
		c-0.05-0.101-22.659-53.47-23.506-54.799c-1.158-1.816-3.079-3.111-5.338-3.406c-0.861-0.114,5.388-0.073-91.336-0.073
		c-3,0-5.712,1.788-6.894,4.546c-23.704,55.309-22.706,52.871-22.937,53.74c-0.368,1.389-0.331,3.004,0.174,4.429
		c0.802,2.283-1.225-0.18,38.349,39.225c-22.362,5.046-43.02,14.631-60.961,27.73c-23.14-25.475-54.335-41.571-88.189-45.747
		c35.746-30.264,7.872-73.616-23.004-54.802c-31.45-19.175-59.522,25.584-21.3,56.205C50.21,180.662,0,238.911,0,308.675
		c0,72.078,50.344,130.891,120.081,140.547c4.079,0.571,7.887-2.281,8.457-6.4c0.568-4.103-2.297-7.89-6.4-8.457
		C60.059,425.767,15,372.907,15,308.675c0-70.596,57.434-128.03,128.029-128.03c35.989,0,69.892,14.942,94.126,41.239
		c-2.79,2.45-5.5,4.988-8.119,7.617c-39.975-43.645-104.919-49.699-151.946-17.777c-3.428,2.326-4.32,6.99-1.993,10.417
		c2.325,3.429,6.99,4.32,10.417,1.993c41.665-28.278,98.864-22.178,133.385,16.509c-38.251,46.044-47.194,106.617-29.437,158.853
		c-14.361,7.397-30.373,11.29-46.683,11.29c-86.35,0-131.816-100.269-80.97-163.916c2.586-3.236,2.058-7.956-1.178-10.541
		c-3.239-2.587-7.957-2.059-10.541,1.178c-58.241,72.901-6.68,188.279,92.688,188.279c18.189,0,36.061-4.226,52.188-12.264
		c1.518,3.404,3.149,6.746,4.885,10.025c-13.923,7.356-26.614,11.763-44.593,12.628c-4.138,0.199-7.33,3.714-7.131,7.852
		c0.199,4.135,3.712,7.33,7.852,7.131c20.86-1.003,35.777-6.312,51.488-14.674c29.571,45.385,80.764,75.453,138.854,75.453
		c91.322,0,165.618-74.296,165.618-165.618C511.94,295.989,492.899,253.246,456.877,222.709z M113.46,130.254
		c0.429-1.407,1.226-4.025,3.659-5.884c0.454-0.347,2.623-1.879,5.518-1.879c2.827,0,7.187,1.649,9.378,3.87
		c1.423,1.796,3.39,2.835,5.673,2.835c5.759,0,4.638-5.126,13.759-6.601c3.519-0.569,6.294,1.381,6.813,1.776
		c2.428,1.854,3.228,4.477,3.657,5.885c0,0.77,1.378,2.417-0.136,9.011c-2.579,11.216-14.035,19.379-24.094,25.284
		c-9.945-5.838-21.513-14.031-24.093-25.284C113.071,136.991,112.355,133.875,113.46,130.254z M388.914,135.525l-16.16-37.706
		h13.801l16.159,37.706H388.914z M356.435,97.818l16.159,37.706h-52.541l16.153-37.706H356.435z M306.095,97.817h13.793
		l-16.153,37.707h-13.8L306.095,97.817z M296.724,150.527c3.641,0,97.199,0.001,99.303,0.001l-31.042,31.155
		c-12.305-1.301-24.594-1.331-36.941,0.031L296.724,150.527z" fill="#84cc16"></path><path d="M238.365,260.096c-0.51,0.488-0.944,1.04-1.293,1.639c-69.633,89.735-6.157,222.812,109.25,222.812
		c76.22,0,138.229-62.01,138.229-138.229s-62.01-138.229-138.229-138.229C302.687,208.089,263.717,228.418,238.365,260.096z
		 M234.483,398.026c-1.685-3.63-3.198-7.355-4.53-11.166c30.554-34.023,37.248-80.758,22.23-119.965
		c2.61-3.089,5.368-6.048,8.265-8.866C281.803,309.683,268.996,361.381,234.483,398.026z M241.322,281.888
		c7.842,28.838,2.884,61.177-16.133,87.085C219.715,339.636,224.897,308.556,241.322,281.888z M469.552,346.317
		c0,67.949-55.28,123.229-123.229,123.229c-43.899,0-82.504-23.079-104.336-57.735c41.01-40.799,57.993-102.715,30.383-164.002
		C352.828,187.253,469.552,244.54,469.552,346.317z" fill="#84cc16"></path></svg>